<svg xmlns="http://www.w3.org/2000/svg" xmlns:xlink="http://www.w3.org/1999/xlink" width="287" zoomAndPan="magnify" viewBox="0 0 215.25 344.249992" height="459" preserveAspectRatio="xMidYMid meet" version="1.0"><defs><clipPath id="801cfeaf54"><path d="M 11.894531 8.445312 L 208.457031 8.445312 L 208.457031 323 L 11.894531 323 Z M 11.894531 8.445312 " clip-rule="nonzero"/></clipPath><clipPath id="ccd7311cfa"><path d="M 0 0.222656 L 213.753906 0.222656 L 213.753906 343 L 0 343 Z M 0 0.222656 " clip-rule="nonzero"/></clipPath><clipPath id="f2d6efd1fc"><path d="M 9.652344 10.167969 L 211.449219 10.167969 L 211.449219 332.886719 L 9.652344 332.886719 Z M 9.652344 10.167969 " clip-rule="nonzero"/></clipPath></defs><g clip-path="url(#801cfeaf54)"><path fill="#ffffff" d="M 110.175781 8.597656 C 110.175781 8.597656 11.894531 170.535156 11.894531 224.640625 C 11.894531 278.9375 55.976562 322.757812 110.175781 322.757812 C 164.566406 322.757812 208.457031 278.746094 208.457031 224.640625 C 208.457031 204.257812 194.527344 168.4375 177.160156 131.859375 Z M 110.175781 8.597656 " fill-opacity="1" fill-rule="evenodd"/></g><g clip-path="url(#ccd7311cfa)"><path fill="#000000" d="M 179.273438 135.25 L 179.480469 137.742188 C 179.066406 172.433594 179.898438 161.839844 178.027344 199.644531 C 176.988281 224.160156 173.042969 245.140625 162.863281 263.210938 C 142.921875 297.074219 111.554688 318.46875 86.417969 318.46875 C 74.578125 318.46875 51.101562 302.683594 47.15625 295.828125 C 46.738281 295.410156 46.738281 290.011719 46.738281 289.59375 C 48.195312 282.324219 53.59375 265.707031 56.917969 260.304688 C 70.628906 270.066406 101.582031 291.257812 110.929688 291.257812 C 116.332031 291.257812 121.109375 290.21875 125.679688 285.023438 C 131.496094 277.753906 133.15625 267.992188 133.574219 243.0625 C 134.609375 192.582031 134.402344 76.875 133.363281 51.53125 L 133.363281 47.792969 C 133.363281 47.792969 133.15625 45.714844 133.15625 45.714844 C 117.785156 18.503906 106.984375 0.222656 106.984375 0.222656 C 106.984375 0.222656 0 176.796875 0 235.792969 C 0 294.996094 47.988281 342.773438 106.984375 342.773438 C 166.1875 342.773438 213.964844 294.789062 213.964844 235.792969 C 213.964844 213.566406 198.800781 174.511719 179.898438 134.625 Z M 179.273438 135.25 " fill-opacity="1" fill-rule="evenodd"/></g><g clip-path="url(#f2d6efd1fc)"><path fill="#007079" d="M 178.730469 137.238281 L 178.925781 139.582031 C 178.53125 172.230469 179.316406 162.261719 177.554688 197.839844 C 176.574219 220.910156 172.851562 240.65625 163.25 257.664062 C 144.441406 289.53125 114.859375 309.667969 91.152344 309.667969 C 79.984375 309.667969 57.847656 294.808594 54.125 288.355469 C 53.734375 287.964844 53.734375 282.882812 53.734375 282.492188 C 55.105469 275.648438 60.199219 260.011719 63.332031 254.925781 C 76.261719 264.117188 105.457031 284.054688 114.273438 284.054688 C 119.367188 284.054688 123.871094 283.078125 128.183594 278.191406 C 133.667969 271.347656 135.234375 262.160156 135.625 238.699219 C 136.605469 191.195312 136.410156 82.304688 135.429688 58.453125 L 135.429688 54.933594 C 135.429688 54.933594 135.234375 52.976562 135.234375 52.976562 C 120.738281 27.367188 110.550781 10.164062 110.550781 10.164062 C 110.550781 10.164062 9.652344 176.335938 9.652344 231.859375 C 9.652344 287.574219 54.90625 332.539062 110.550781 332.539062 C 166.386719 332.539062 211.449219 287.378906 211.449219 231.859375 C 211.449219 210.941406 197.144531 174.1875 179.316406 136.652344 Z M 178.730469 137.238281 " fill-opacity="1" fill-rule="evenodd"/></g></svg>